<svg width="1678" height="644" viewBox="0 0 1678 644" fill="none" xmlns="http://www.w3.org/2000/svg">
<g clip-path="url(#clip0_3_34)">
<path d="M238.369 207.281L168 231.516L238.369 217.304V563.025L266.402 553.34L380.76 614.342V513.779L464.503 484.838L534.817 460.626L464.503 474.827V129.106L238.369 207.281ZM343.806 419.781C342.126 425.874 337.577 430.232 332.235 430.232C331.652 430.23 331.07 430.178 330.5 430.074C334.967 429.275 338.697 425.401 340.24 420.176C341.331 416.476 341.331 412.614 340.24 408.914C338.656 403.7 334.967 399.827 330.5 399.016C331.07 398.912 331.652 398.86 332.235 398.858C337.577 398.858 342.126 403.227 343.806 409.309C348.287 410.164 351.443 412.18 351.443 414.556C351.443 416.932 348.287 418.937 343.806 419.781ZM436.811 469.658L380.801 489.038V283.318L266.443 222.304L436.852 163.408L436.811 469.658ZM760.951 95.1419L534.817 17V362.721L464.503 348.52L534.817 372.732L618.574 401.673V502.203L732.918 441.189L760.951 450.885V105.164L831.333 119.387L760.951 95.1419ZM659.093 308.092C660.664 313.306 664.353 317.18 668.82 317.991C668.255 318.095 667.677 318.148 667.098 318.149C661.743 318.149 657.208 313.779 655.514 307.698C651.047 306.842 647.891 304.827 647.891 302.45C647.891 300.074 651.047 298.059 655.514 297.214C657.208 291.122 661.743 286.763 667.098 286.763C667.677 286.765 668.255 286.817 668.82 286.921C664.353 287.721 660.623 291.595 659.093 296.82C658.003 300.52 658.003 304.381 659.093 308.081V308.092ZM618.574 171.268V376.899L562.563 357.529V51.3356L732.973 110.232L618.574 171.268Z" fill="black"/>
<path d="M926.41 341V231.909H971.474C979.641 231.909 986.69 233.507 992.621 236.703C998.587 239.864 1003.19 244.285 1006.42 249.967C1009.65 255.613 1011.26 262.183 1011.26 269.675C1011.26 277.204 1009.61 283.791 1006.31 289.438C1003.04 295.048 998.373 299.398 992.301 302.488C986.229 305.577 979.02 307.122 970.675 307.122H942.869V286.348H965.774C969.751 286.348 973.072 285.656 975.735 284.271C978.434 282.886 980.476 280.95 981.861 278.464C983.246 275.943 983.938 273.013 983.938 269.675C983.938 266.302 983.246 263.39 981.861 260.94C980.476 258.454 978.434 256.536 975.735 255.187C973.036 253.837 969.716 253.163 965.774 253.163H952.777V341H926.41ZM1024.26 341V231.909H1100.33V253.322H1050.63V275.695H1096.44V297.161H1050.63V319.587H1100.33V341H1024.26ZM1116.84 341V231.909H1161.9C1170.07 231.909 1177.12 233.383 1183.05 236.33C1189.02 239.242 1193.61 243.433 1196.85 248.901C1200.08 254.335 1201.69 260.78 1201.69 268.237C1201.69 275.801 1200.04 282.229 1196.74 287.52C1193.44 292.776 1188.75 296.788 1182.68 299.558C1176.61 302.293 1169.41 303.66 1161.1 303.66H1132.61V282.886H1156.2C1160.18 282.886 1163.5 282.371 1166.16 281.341C1168.86 280.276 1170.91 278.678 1172.29 276.547C1173.68 274.381 1174.37 271.611 1174.37 268.237C1174.37 264.864 1173.68 262.076 1172.29 259.874C1170.91 257.637 1168.86 255.968 1166.16 254.867C1163.47 253.731 1160.15 253.163 1156.2 253.163H1143.21V341H1116.84ZM1178.26 291.142L1205.42 341H1176.66L1150.02 291.142H1178.26ZM1216.16 341V231.909H1290.62V253.322H1242.52V275.695H1285.88V297.161H1242.52V341H1216.16ZM1303.9 341V231.909H1379.97V253.322H1330.27V275.695H1376.08V297.161H1330.27V319.587H1379.97V341H1303.9ZM1495.5 271.433H1468.87C1468.51 268.699 1467.78 266.231 1466.68 264.029C1465.58 261.827 1464.13 259.945 1462.32 258.383C1460.51 256.82 1458.36 255.631 1455.87 254.814C1453.42 253.962 1450.7 253.536 1447.72 253.536C1442.43 253.536 1437.87 254.832 1434.03 257.424C1430.23 260.016 1427.3 263.763 1425.24 268.663C1423.22 273.564 1422.21 279.494 1422.21 286.455C1422.21 293.699 1423.24 299.771 1425.3 304.672C1427.39 309.537 1430.32 313.212 1434.08 315.698C1437.88 318.148 1442.38 319.374 1447.56 319.374C1450.47 319.374 1453.12 319.001 1455.5 318.255C1457.91 317.509 1460.03 316.426 1461.84 315.006C1463.68 313.55 1465.19 311.792 1466.36 309.732C1467.57 307.637 1468.41 305.276 1468.87 302.648L1495.5 302.808C1495.04 307.637 1493.64 312.396 1491.29 317.083C1488.99 321.771 1485.81 326.05 1481.76 329.92C1477.71 333.756 1472.77 336.81 1466.95 339.082C1461.16 341.355 1454.52 342.491 1447.03 342.491C1437.16 342.491 1428.31 340.325 1420.5 335.993C1412.72 331.625 1406.58 325.268 1402.07 316.923C1397.56 308.578 1395.31 298.422 1395.31 286.455C1395.31 274.452 1397.6 264.278 1402.18 255.933C1406.76 247.587 1412.96 241.249 1420.77 236.916C1428.58 232.584 1437.33 230.418 1447.03 230.418C1453.63 230.418 1459.74 231.341 1465.35 233.188C1470.96 234.999 1475.9 237.662 1480.16 241.178C1484.42 244.658 1487.88 248.937 1490.55 254.015C1493.21 259.093 1494.86 264.899 1495.5 271.433ZM1507.02 253.322V231.909H1599.23V253.322H1566.15V341H1540.15V253.322H1507.02ZM1143.52 438H1123.81V379.818H1143.92C1149.7 379.818 1154.66 380.983 1158.81 383.312C1162.98 385.623 1166.18 388.947 1168.41 393.284C1170.65 397.621 1171.76 402.811 1171.76 408.852C1171.76 414.913 1170.64 420.121 1168.38 424.477C1166.15 428.833 1162.92 432.176 1158.7 434.506C1154.49 436.835 1149.43 438 1143.52 438ZM1134.35 428.881H1143.01C1147.07 428.881 1150.45 428.142 1153.16 426.665C1155.86 425.169 1157.9 422.943 1159.26 419.989C1160.63 417.015 1161.31 413.303 1161.31 408.852C1161.31 404.402 1160.63 400.708 1159.26 397.773C1157.9 394.818 1155.88 392.612 1153.21 391.153C1150.56 389.676 1147.27 388.938 1143.33 388.938H1134.35V428.881ZM1233.77 408.909C1233.77 415.178 1232.59 420.547 1230.24 425.017C1227.91 429.468 1224.73 432.877 1220.7 435.244C1216.68 437.612 1212.13 438.795 1207.03 438.795C1201.94 438.795 1197.37 437.612 1193.34 435.244C1189.33 432.858 1186.14 429.439 1183.79 424.989C1181.47 420.519 1180.3 415.159 1180.3 408.909C1180.3 402.64 1181.47 397.28 1183.79 392.83C1186.14 388.36 1189.33 384.941 1193.34 382.574C1197.37 380.206 1201.94 379.023 1207.03 379.023C1212.13 379.023 1216.68 380.206 1220.7 382.574C1224.73 384.941 1227.91 388.36 1230.24 392.83C1232.59 397.28 1233.77 402.64 1233.77 408.909ZM1223.17 408.909C1223.17 404.496 1222.48 400.775 1221.1 397.744C1219.73 394.695 1217.84 392.394 1215.41 390.841C1212.99 389.269 1210.2 388.483 1207.03 388.483C1203.87 388.483 1201.08 389.269 1198.65 390.841C1196.23 392.394 1194.33 394.695 1192.94 397.744C1191.58 400.775 1190.9 404.496 1190.9 408.909C1190.9 413.322 1191.58 417.053 1192.94 420.102C1194.33 423.133 1196.23 425.434 1198.65 427.006C1201.08 428.559 1203.87 429.335 1207.03 429.335C1210.2 429.335 1212.99 428.559 1215.41 427.006C1217.84 425.434 1219.73 423.133 1221.1 420.102C1222.48 417.053 1223.17 413.322 1223.17 408.909ZM1295.72 408.909C1295.72 415.178 1294.55 420.547 1292.2 425.017C1289.87 429.468 1286.69 432.877 1282.65 435.244C1278.64 437.612 1274.08 438.795 1268.99 438.795C1263.89 438.795 1259.33 437.612 1255.29 435.244C1251.28 432.858 1248.1 429.439 1245.75 424.989C1243.42 420.519 1242.25 415.159 1242.25 408.909C1242.25 402.64 1243.42 397.28 1245.75 392.83C1248.1 388.36 1251.28 384.941 1255.29 382.574C1259.33 380.206 1263.89 379.023 1268.99 379.023C1274.08 379.023 1278.64 380.206 1282.65 382.574C1286.69 384.941 1289.87 388.36 1292.2 392.83C1294.55 397.28 1295.72 402.64 1295.72 408.909ZM1285.12 408.909C1285.12 404.496 1284.43 400.775 1283.05 397.744C1281.69 394.695 1279.79 392.394 1277.37 390.841C1274.94 389.269 1272.15 388.483 1268.99 388.483C1265.82 388.483 1263.03 389.269 1260.61 390.841C1258.18 392.394 1256.28 394.695 1254.9 397.744C1253.53 400.775 1252.85 404.496 1252.85 408.909C1252.85 413.322 1253.53 417.053 1254.9 420.102C1256.28 423.133 1258.18 425.434 1260.61 427.006C1263.03 428.559 1265.82 429.335 1268.99 429.335C1272.15 429.335 1274.94 428.559 1277.37 427.006C1279.79 425.434 1281.69 423.133 1283.05 420.102C1284.43 417.053 1285.12 413.322 1285.12 408.909ZM1305.68 438V379.818H1327.5C1331.97 379.818 1335.72 380.595 1338.75 382.148C1341.8 383.701 1344.1 385.879 1345.66 388.682C1347.23 391.466 1348.01 394.714 1348.01 398.426C1348.01 402.157 1347.22 405.396 1345.63 408.142C1344.06 410.869 1341.74 412.981 1338.67 414.477C1335.6 415.955 1331.83 416.693 1327.36 416.693H1311.82V407.943H1325.94C1328.55 407.943 1330.69 407.583 1332.36 406.864C1334.03 406.125 1335.26 405.055 1336.05 403.653C1336.87 402.233 1337.27 400.491 1337.27 398.426C1337.27 396.362 1336.87 394.6 1336.05 393.142C1335.24 391.665 1334 390.547 1332.33 389.79C1330.67 389.013 1328.52 388.625 1325.88 388.625H1316.22V438H1305.68ZM1335.74 411.636L1350.14 438H1338.38L1324.24 411.636H1335.74ZM1389.33 395.812C1389.07 393.331 1387.95 391.4 1385.98 390.017C1384.03 388.634 1381.49 387.943 1378.37 387.943C1376.17 387.943 1374.29 388.275 1372.72 388.938C1371.14 389.6 1369.94 390.5 1369.11 391.636C1368.27 392.773 1367.85 394.07 1367.83 395.528C1367.83 396.741 1368.1 397.792 1368.65 398.682C1369.22 399.572 1369.99 400.33 1370.95 400.955C1371.92 401.561 1372.99 402.072 1374.16 402.489C1375.34 402.905 1376.52 403.256 1377.72 403.54L1383.17 404.903C1385.37 405.415 1387.48 406.106 1389.5 406.977C1391.55 407.848 1393.38 408.947 1394.99 410.273C1396.62 411.598 1397.9 413.199 1398.85 415.074C1399.8 416.949 1400.27 419.146 1400.27 421.665C1400.27 425.074 1399.4 428.076 1397.66 430.67C1395.92 433.246 1393.4 435.263 1390.1 436.722C1386.83 438.161 1382.86 438.881 1378.2 438.881C1373.67 438.881 1369.74 438.18 1366.41 436.778C1363.09 435.377 1360.5 433.331 1358.62 430.642C1356.77 427.953 1355.76 424.676 1355.61 420.812H1365.98C1366.13 422.839 1366.76 424.525 1367.86 425.869C1368.96 427.214 1370.39 428.218 1372.15 428.881C1373.93 429.544 1375.92 429.875 1378.11 429.875C1380.4 429.875 1382.41 429.534 1384.14 428.852C1385.88 428.152 1387.24 427.186 1388.23 425.955C1389.21 424.705 1389.71 423.246 1389.73 421.58C1389.71 420.064 1389.27 418.814 1388.4 417.83C1387.53 416.826 1386.3 415.992 1384.73 415.33C1383.18 414.648 1381.36 414.042 1379.28 413.511L1372.66 411.807C1367.87 410.576 1364.08 408.71 1361.29 406.21C1358.53 403.691 1357.15 400.348 1357.15 396.182C1357.15 392.754 1358.08 389.752 1359.93 387.176C1361.81 384.6 1364.35 382.602 1367.57 381.182C1370.79 379.742 1374.44 379.023 1378.51 379.023C1382.64 379.023 1386.26 379.742 1389.36 381.182C1392.49 382.602 1394.94 384.581 1396.72 387.119C1398.5 389.638 1399.42 392.536 1399.48 395.812H1389.33Z" fill="black"/>
</g>
<defs>
<clipPath id="clip0_3_34">
<rect width="1678" height="644" fill="white"/>
</clipPath>
</defs>
</svg>
